<?xml version="1.0" encoding="utf-8"?>
<!-- Generator: Adobe Illustrator 23.0.4, SVG Export Plug-In . SVG Version: 6.00 Build 0)  -->
<svg version="1.1" id="Layer_1" xmlns="http://www.w3.org/2000/svg" xmlns:xlink="http://www.w3.org/1999/xlink" x="0px" y="0px"
	 width="256px" height="256px" viewBox="0 0 256 256" style="enable-background:new 0 0 256 256;" xml:space="preserve">
<style type="text/css">
	.st0{fill:#0071BC;}
	.st1{fill:#005085;}
	.st2{fill:#E6E6E6;}
	.st3{opacity:7.000000e-02;}
</style>
<g>
	<rect class="st0" width="256" height="256"/>
</g>
<circle class="st1" cx="128" cy="128" r="88.5"/>
<g>
	<polygon class="st2" points="110.1,80.3 72.7,117.8 62.5,128 72.7,138.2 110.1,175.7 120.4,165.4 82.9,128 120.4,90.6 	"/>
	<polygon class="st2" points="145.9,175.7 183.3,138.2 193.5,128 183.3,117.8 145.9,80.3 135.6,90.6 173.1,128 135.6,165.4 	"/>
</g>
<g>
	<path class="st3" d="M256,131.3l-59.6-59.6c12.9,15.4,20.6,35.2,20.6,56.8c0,48.9-39.6,88.5-88.5,88.5c-25.5,0-48.5-10.8-64.7-28.1
		l-0.3,0.3l66.8,66.8H256V131.3z"/>
</g>
</svg>
